HIERARCHY
ROOT hip
{
	OFFSET 0.000000 0.000000 0.000000 
	CHANNELS 6 Xposition Yposition Zposition Xrotation Zrotation Yrotation
	JOINT abdomen
	{
		OFFSET 0.000000 3.402643 0.000000 
		CHANNELS 3 Xrotation Zrotation Yrotation
		JOINT chest
		{
			OFFSET 0.000000 8.438565 -0.680529 
			CHANNELS 3 Xrotation Zrotation Yrotation
			JOINT neck
			{
				OFFSET 0.000000 10.207942 -0.272212 
				CHANNELS 3 Xrotation Zrotation Yrotation
				JOINT head
				{
					OFFSET 0.000000 3.130431 0.000000 
					CHANNELS 3 Xrotation Zrotation Yrotation
					End Site
					{
						OFFSET 0.000000 3.130435 0.000000 
					}
				}
			}
			JOINT lCollar
			{
				OFFSET 3.470700 6.669187 -0.816635 
				CHANNELS 3 Yrotation Zrotation Xrotation
				JOINT lShldr
				{
					OFFSET 3.198488 0.000000 0.000000 
					CHANNELS 3 Zrotation Yrotation Xrotation
					JOINT lForeArm
					{
						OFFSET 10.139888 0.000000 0.000000 
						CHANNELS 3 Yrotation Zrotation Xrotation
						JOINT lHand
						{
							OFFSET 8.370511 0.000000 0.000000 
							CHANNELS 3 Zrotation Yrotation Xrotation
							End Site
							{
								OFFSET 4.083176 0.000000 0.000000 
							}
						}
					}
				}
			}
			JOINT rCollar
			{
				OFFSET -3.470700 6.669187 -0.816635 
				CHANNELS 3 Yrotation Zrotation Xrotation
				JOINT rShldr
				{
					OFFSET -3.198488 0.000000 0.000000 
					CHANNELS 3 Zrotation Yrotation Xrotation
					JOINT rForeArm
					{
						OFFSET -10.139888 0.000000 0.000000 
						CHANNELS 3 Yrotation Zrotation Xrotation
						JOINT rHand
						{
							OFFSET -8.370511 0.000000 0.000000 
							CHANNELS 3 Zrotation Yrotation Xrotation
							End Site
							{
								OFFSET -4.083176 0.000000 0.000000 
							}
						}
					}
				}
			}
		}
	}
	JOINT lThigh
	{
		OFFSET 5.308129 -1.633274 1.361059 
		CHANNELS 3 Xrotation Zrotation Yrotation
		JOINT lShin
		{
			OFFSET -2.041588 -20.007561 0.000000 
			CHANNELS 3 Xrotation Zrotation Yrotation
			JOINT lFoot
			{
				OFFSET 0.000000 -19.190928 -1.224953 
				CHANNELS 3 Xrotation Yrotation Zrotation
				End Site
				{
					OFFSET 0.000000 -2.449906 4.627600 
				}
			}
		}
	}
	JOINT rThigh
	{
		OFFSET -5.308129 -1.633274 1.361059 
		CHANNELS 3 Xrotation Zrotation Yrotation
		JOINT rShin
		{
			OFFSET 2.041588 -20.007561 0.000000 
			CHANNELS 3 Xrotation Zrotation Yrotation
			JOINT rFoot
			{
				OFFSET 0.000000 -19.190928 -1.224953 
				CHANNELS 3 Xrotation Yrotation Zrotation
				End Site
				{
					OFFSET 0.000000 -2.449906 4.627600 
				}
			}
		}
	}
}
MOTION
Frames: 17
Frame Time: 0.033333
-12.954669 48.967667 -77.627739 -3.060175 -8.396384 103.229958 16.889925 19.511189 -11.546705 -20.839844 0.000000 0.000000 -28.732782 -1.070533 -16.692905 -2.520860 -1.255023 0.218345 -4.754609 -0.109182 -0.002653 7.914990 -11.635867 -20.156143 -110.445374 -22.389048 -29.236795 -10.686533 14.210143 -34.409275 4.754609 0.109182 -0.002672 68.863129 3.036599 -11.627530 74.109924 -0.532075 22.780510 26.185932 -28.932640 26.321396 -47.487408 3.857100 -8.134181 76.027390 11.574112 -9.875943 -41.992996 -1.264534 -9.858912 -34.061218 -31.452963 -15.602608 75.544540 12.060568 9.342303 -41.419106 14.377794 -8.159081 
-12.955173 48.982895 -77.635353 -3.030714 -8.416116 103.285286 16.925316 19.726007 -11.360941 -20.839844 0.000000 0.000000 -28.530972 -1.135413 -16.460958 -2.520860 -1.255023 0.218345 -4.754609 -0.109182 -0.002653 8.045830 -12.156324 -20.386408 -110.124443 -22.400229 -29.329136 -10.748814 14.067578 -34.737698 4.754609 0.109182 -0.002672 68.548332 3.537660 -11.568634 73.670433 -0.555843 22.610901 25.921711 -28.782099 26.195040 -47.491142 3.818891 -8.138824 75.940552 11.520981 -9.933617 -41.917313 -1.292284 -9.805866 -34.052681 -31.503639 -15.631607 75.494385 12.070112 9.329019 -41.435692 14.333302 -8.024896 
-12.949588 48.999649 -77.644501 -3.020995 -8.435696 103.372772 16.962835 19.923117 -11.244767 -20.839844 0.000000 0.000000 -28.352734 -1.204263 -16.340530 -2.520860 -1.255023 0.218345 -4.754609 -0.109182 -0.002653 8.192166 -12.622955 -20.592367 -109.848587 -22.414564 -29.416599 -10.813990 13.903163 -35.011398 4.754609 0.109182 -0.002672 68.305679 3.917727 -11.539751 73.544281 -0.584430 22.453335 25.798965 -28.643789 26.051718 -47.485561 3.769738 -8.139953 75.891090 11.520811 -9.928913 -41.852383 -1.343530 -9.725801 -34.002228 -31.540249 -15.652569 75.435242 12.079696 9.284811 -41.423161 14.277989 -7.978830 
-12.938418 49.015381 -77.654137 -3.060483 -8.435391 103.476151 17.001104 20.080437 -11.187820 -20.839844 0.000000 0.000000 -28.206240 -1.226200 -16.329683 -2.520860 -1.255023 0.218345 -4.754609 -0.109182 -0.002653 8.378553 -13.051202 -20.802849 -109.602386 -22.431688 -29.447262 -10.891318 13.783109 -35.191185 4.754609 0.109182 -0.002672 68.142159 4.128364 -11.559172 73.713333 -0.644778 22.445225 25.894377 -28.435795 26.094080 -47.479439 3.730047 -8.144704 75.848495 11.553507 -9.929749 -41.785172 -1.407401 -9.547259 -33.911671 -31.526224 -15.694924 75.346443 12.118704 9.198303 -41.388546 14.229784 -8.013353 
-12.922175 49.026039 -77.662262 -3.129509 -8.425097 103.593079 17.019358 20.199465 -11.198212 -20.839844 0.000000 0.000000 -28.090622 -1.184516 -16.417740 -2.520860 -1.255023 0.218345 -4.754609 -0.109182 -0.002653 8.636110 -13.433655 -21.005247 -109.411957 -22.461172 -29.403469 -10.901767 13.739155 -35.243172 4.754609 0.109182 -0.002672 68.034172 4.128541 -11.644323 74.091362 -0.734431 22.700796 26.151495 -27.995541 26.583521 -47.485298 3.710971 -8.194939 75.834488 11.599591 -9.933912 -41.737453 -1.462973 -9.374473 -33.805016 -31.478630 -15.771852 75.276924 12.158017 9.135488 -41.343071 14.186029 -8.131876 
-12.902369 49.031128 -77.666328 -3.198612 -8.424544 103.710518 17.037785 20.237108 -11.242843 -20.839844 0.000000 0.000000 -27.994833 -1.106970 -16.542395 -2.520860 -1.255023 0.218345 -4.754609 -0.109182 -0.002653 8.978646 -13.741106 -21.211548 -109.317558 -22.501661 -29.334505 -10.784983 13.795106 -35.172966 4.754609 0.109182 -0.002672 67.953598 3.906189 -11.813740 74.611351 -0.859651 23.308363 26.441826 -27.163347 27.696230 -47.499557 3.701040 -8.238645 75.817978 11.670235 -9.950214 -41.721088 -1.492710 -9.314635 -33.679909 -31.452246 -15.838802 75.216286 12.245343 9.062194 -41.300045 14.196620 -8.274305 
-12.880542 49.031616 -77.665306 -3.257843 -8.424059 103.787460 17.041773 20.156773 -11.334904 -20.839844 0.000000 0.000000 -27.956919 -1.019725 -16.648788 -2.520860 -1.255023 0.218345 -4.754609 -0.109182 -0.002653 9.362514 -13.951181 -21.381321 -109.365074 -22.539999 -29.257139 -10.540312 13.951216 -34.980736 4.754609 0.109182 -0.002672 67.899239 3.480948 -12.068595 75.197411 -1.024063 24.254080 26.654102 -25.842571 29.517519 -47.504303 3.672122 -8.265988 75.833832 11.716550 -9.951311 -41.707424 -1.508827 -9.230506 -33.602184 -31.423512 -15.884089 75.176254 12.303754 9.000626 -41.254684 14.220057 -8.468891 
-12.856677 49.031128 -77.660225 -3.287624 -8.443314 103.822151 17.013067 19.949699 -11.455084 -20.839844 0.000000 0.000000 -27.949160 -0.948184 -16.763929 -2.520860 -1.255023 0.218345 -4.754609 -0.109182 -0.002653 9.686169 -14.041113 -21.478880 -109.537346 -22.597664 -29.167677 -10.212248 14.180048 -34.679642 4.754609 0.109182 -0.002672 67.843605 2.909426 -12.408564 75.815834 -1.276002 25.507441 26.767029 -24.090094 31.959637 -47.508812 3.661635 -8.310041 75.860672 11.778832 -9.882784 -41.721054 -1.517915 -9.056993 -33.560295 -31.389685 -15.909803 75.166550 12.333083 8.962489 -41.199493 14.244489 -8.649821 
-12.832316 49.030609 -77.653122 -3.317577 -8.482062 103.818924 16.955624 19.656534 -11.598042 -20.839844 0.000000 0.000000 -27.943386 -0.909403 -16.909369 -2.520860 -1.255023 0.218345 -4.754609 -0.109182 -0.002653 9.909239 -14.049500 -21.491913 -109.774399 -22.664345 -29.008514 -9.873659 14.450015 -34.266220 4.754609 0.109182 -0.002672 67.798325 2.241296 -12.865950 76.436676 -1.640825 26.955465 26.790823 -22.003111 34.860992 -47.519253 3.681890 -8.335609 75.837158 11.834438 -9.853953 -41.694775 -1.516035 -8.895291 -33.560364 -31.331242 -15.895272 75.146637 12.342911 8.946176 -41.177944 14.241200 -8.790193 
-12.807948 49.029594 -77.646523 -3.367201 -8.510889 103.788757 16.873566 19.330627 -11.768106 -20.839844 0.000000 0.000000 -27.941626 -0.909941 -17.139225 -2.520860 -1.255023 0.218345 -4.754609 -0.109182 -0.002653 9.985447 -14.002794 -21.427368 -109.995705 -22.744133 -28.812466 -9.543633 14.712718 -33.766083 4.754609 0.109182 -0.002672 67.720535 1.522655 -13.420259 77.125717 -2.126041 28.451670 26.771513 -19.677839 37.949615 -47.529045 3.710804 -8.365927 75.856956 11.845968 -9.832887 -41.749874 -1.467625 -8.977643 -33.591217 -31.226347 -15.866676 75.147301 12.342978 8.927024 -41.188744 14.232788 -8.821170 
-12.784595 49.029091 -77.640945 -3.426619 -8.529870 103.749756 16.802084 19.019960 -11.947617 -20.839844 0.000000 0.000000 -27.934137 -0.906627 -17.486624 -2.520860 -1.255023 0.218345 -4.754609 -0.109182 -0.002653 9.966343 -13.958453 -21.339853 -110.140511 -22.830517 -28.593843 -9.278993 14.945531 -33.290493 4.754609 0.109182 -0.002672 67.660309 0.777718 -14.044447 78.024437 -2.676912 29.791626 26.694454 -17.240160 40.838528 -47.509430 3.808821 -8.345246 75.829643 11.893867 -9.916626 -41.868073 -1.391568 -9.270244 -33.600933 -31.128727 -15.840059 75.128189 12.333392 8.906029 -41.210915 14.220192 -8.793531 
-12.764789 49.032135 -77.634842 -3.485866 -8.529345 103.699844 16.748728 18.721388 -12.158836 -20.839844 0.000000 0.000000 -27.938616 -0.874840 -17.915527 -2.520860 -1.255023 0.218345 -4.754609 -0.109182 -0.002653 9.968390 -13.947989 -21.275429 -110.198265 -22.899767 -28.406809 -9.097084 15.140279 -32.918545 4.754609 0.109182 -0.002672 67.694061 -0.034649 -14.672597 79.392342 -3.251634 30.715321 26.483978 -14.928763 43.016998 -47.481934 3.926190 -8.372037 75.809540 11.884469 -9.944832 -41.946159 -1.334940 -9.553152 -33.579533 -31.018221 -15.822289 75.106522 12.373035 8.909118 -41.233231 14.207958 -8.774451 
-12.748050 49.038734 -77.629265 -3.535148 -8.519155 103.647903 16.732727 18.424383 -12.403719 -20.839844 0.000000 0.000000 -28.000940 -0.825032 -18.331003 -2.520860 -1.255023 0.218345 -4.754609 -0.109182 -0.002653 10.069337 -13.992170 -21.294758 -110.171593 -22.946838 -28.276421 -8.981416 15.293087 -32.713493 4.754609 0.109182 -0.002672 67.991272 -0.938916 -15.252274 81.522942 -3.784272 30.948690 26.088028 -13.116962 43.923714 -47.433372 4.023855 -8.362867 75.777954 11.883587 -9.995984 -41.995144 -1.315725 -9.685073 -33.531990 -30.932413 -15.826537 75.045540 12.411798 8.886164 -41.261166 14.230772 -8.714152 
-12.733836 49.047867 -77.624695 -3.554896 -8.518974 103.603416 16.756170 18.118946 -12.652377 -20.839844 0.000000 0.000000 -28.129280 -0.819326 -18.642288 -2.520860 -1.255023 0.218345 -4.754609 -0.109182 -0.002653 10.273106 -14.099997 -21.393185 -110.096481 -22.967724 -28.183962 -8.925346 15.457000 -32.624348 4.754609 0.109182 -0.002672 68.643105 -1.937107 -15.729249 84.624336 -4.245911 30.314610 25.523830 -12.161536 43.128918 -47.386337 4.091985 -8.342493 75.748581 11.873798 -10.006470 -42.022591 -1.314082 -9.710022 -33.494492 -30.895784 -15.835793 75.004944 12.421353 8.884461 -41.256866 14.264022 -8.723018 
-12.720111 49.056000 -77.621651 -3.535238 -8.528901 103.562050 16.798485 17.806473 -12.906435 -20.839844 0.000000 0.000000 -28.313570 -0.910007 -18.802128 -2.520860 -1.255023 0.218345 -4.754609 -0.109182 -0.002653 10.587534 -14.278876 -21.589518 -109.975891 -22.964197 -28.098837 -8.856302 15.672727 -32.578667 4.754609 0.109182 -0.002672 69.660683 -2.942297 -16.065403 88.626816 -4.533490 28.823225 24.908485 -12.218071 40.543518 -47.361259 4.130472 -8.319602 75.710182 11.855461 -10.014441 -42.021816 -1.304603 -9.725713 -33.462826 -30.882307 -15.854284 74.974022 12.430966 8.894574 -41.264641 14.282541 -8.729224 
-12.707431 49.061066 -77.621651 -3.505794 -8.548662 103.508614 16.821478 17.491945 -13.158880 -20.839844 0.000000 0.000000 -28.515175 -1.080027 -18.830725 -2.520860 -1.255023 0.218345 -4.754609 -0.109182 -0.002653 10.944852 -14.552860 -21.824125 -109.822250 -22.965609 -27.997740 -8.774100 15.999888 -32.538429 4.754609 0.109182 -0.002672 70.915184 -3.783682 -16.225147 93.281609 -4.769128 26.600672 24.407236 -13.152209 36.559097 -47.324017 4.170099 -8.268011 75.672417 11.815261 -10.049868 -42.081284 -1.310187 -9.831842 -33.475868 -30.897285 -15.859930 74.944397 12.401899 8.905087 -41.263592 14.289821 -8.746858 
-12.695743 49.064125 -77.624695 -3.496098 -8.568246 103.451195 16.808470 17.201048 -13.389845 -20.839844 0.000000 0.000000 -28.676975 -1.303663 -18.783285 -2.520860 -1.255023 0.218345 -4.754609 -0.109182 -0.002653 11.308244 -14.924651 -22.074802 -109.611916 -23.004560 -27.887075 -8.684868 16.389370 -32.491795 4.754609 0.109182 -0.002672 72.179619 -4.365569 -16.218157 98.001099 -4.642458 24.143154 24.244097 -14.547207 32.002323 -47.317596 4.209198 -8.235465 75.676720 11.765074 -10.055912 -42.148773 -1.297046 -9.970500 -33.520927 -30.871820 -15.804183 74.934311 12.391899 8.914730 -41.249180 14.319246 -8.773390 
